<svg viewBox="200 220 500 300" version="1.1"  preserveAspectRatio="xMidYMid meet">
<g id="logo-group">
    <image xlink:href="" id="container" x="272" y="144" width="480" height="480" transform="translate(0 0)" style="display: none;"></image>
    <g id="logo-center" transform="translate(0 0)">
      <image xlink:href="" id="icon_container" x="0" y="0" style="display: none;"></image>
      <g id="slogan" style="font-style:normal;font-weight:300;font-size:32px;line-height:1;font-family:Comfortaa;font-variant-ligatures:none;text-align:center;text-anchor:middle" transform="translate(0 0)"></g>
      <g id="title" style="font-style:normal;font-weight:500;font-size:72px;line-height:1;font-family:'Raleway Medium Alt1';font-variant-ligatures:none;text-align:center;text-anchor:middle" transform="translate(0 0)">
        <path id="path709767" style="font-style:normal;font-weight:500;font-size:72px;line-height:1;font-family:'Raleway Medium Alt1';font-variant-ligatures:none;text-align:center;text-anchor:middle" d="m 335.51844,0 h 6.48 v -51.12 h -6.48 z" stroke-width="0" stroke-linejoin="miter" stroke-miterlimit="2" fill="#ffffff" stroke="#ffffff" transform="translate(0 314.38) translate(289.07492499999995 37.58) scale(1.25) translate(-335.51844 51.12)"></path>
        <path id="path709769" style="font-style:normal;font-weight:500;font-size:72px;line-height:1;font-family:'Raleway Medium Alt1';font-variant-ligatures:none;text-align:center;text-anchor:middle" d="M 354.22156,-51.12 V 0 h 6.48 v -39.528 l 11.448,20.448 3.456,-5.904 -14.544,-26.136 z m 43.92,0 -18.576,33.192 -3.384,5.904 1.584,2.808 h 3.672 l 16.992,-30.312 V 0 h 6.48 v -51.12 z" stroke-width="0" stroke-linejoin="miter" stroke-miterlimit="2" fill="#ffffff" stroke="#ffffff" transform="translate(0 314.38) translate(312.45382499999994 37.58) scale(1.25) translate(-354.22156 51.12)"></path>
        <path id="path709771" style="font-style:normal;font-weight:500;font-size:72px;line-height:1;font-family:'Raleway Medium Alt1';font-variant-ligatures:none;text-align:center;text-anchor:middle" d="m 440.91294,-44.136 -2.808,7.632 6.48,16.488 h -12.816 l -1.944,5.04 h 16.2 L 452.07294,0 h 6.912 z m -2.808,-6.984 h -5.472 L 411.68094,0 h 6.624 l 17.064,-43.632 z" stroke-width="0" stroke-linejoin="miter" stroke-miterlimit="2" fill="#ffffff" stroke="#ffffff" transform="translate(0 314.38) translate(384.27805 37.58) scale(1.25) translate(-411.68094 51.12)"></path>
        <path id="path709773" style="font-style:normal;font-weight:500;font-size:72px;line-height:1;font-family:'Raleway Medium Alt1';font-variant-ligatures:none;text-align:center;text-anchor:middle" d="m 478.01769,-7.056 c -2.232,-1.008 -4.104,-2.448 -5.616,-4.32 -1.584,-1.872 -2.88,-3.96 -3.744,-6.408 -0.936,-2.448 -1.368,-4.968 -1.368,-7.776 0,-2.52 0.36,-5.04 1.224,-7.488 0.792,-2.448 1.944,-4.536 3.456,-6.408 1.44,-1.872 3.24,-3.312 5.4,-4.464 2.088,-1.152 4.392,-1.728 7.056,-1.728 3.168,0 5.976,0.72 8.568,2.16 2.52,1.44 4.536,3.672 6.12,6.624 l 4.968,-3.456 c -1.728,-3.24 -4.176,-5.976 -7.344,-8.064 -3.168,-2.016 -7.272,-3.096 -12.168,-3.096 -3.456,0 -6.624,0.72 -9.504,2.088 -2.952,1.44 -5.472,3.312 -7.56,5.688 -2.16,2.376 -3.816,5.112 -4.968,8.208 -1.224,3.096 -1.8,6.336 -1.8,9.792 0,3.384 0.576,6.552 1.8,9.648 1.224,3.168 2.88,5.904 5.04,8.352 2.088,2.448 4.536,4.392 7.488,5.832 2.88,1.512 6.048,2.232 9.504,2.232 3.6,0 6.912,-0.864 10.008,-2.736 v -6.048 c -3.024,2.016 -6.192,2.952 -9.504,2.952 -2.592,0 -4.896,-0.504 -7.056,-1.584 z m 11.088,-18.432 v 4.896 h 11.016 V 0 h 5.472 v -25.488 z" stroke-width="0" stroke-linejoin="miter" stroke-miterlimit="2" fill="#ffffff" stroke="#ffffff" transform="translate(0 314.38) translate(445.5989874999999 37.13) scale(1.25) translate(-460.73769 51.48)"></path>
        <path id="path709775" style="font-style:normal;font-weight:500;font-size:72px;line-height:1;font-family:'Raleway Medium Alt1';font-variant-ligatures:none;text-align:center;text-anchor:middle" d="m 521.99844,-45.36 h 27.576 v -5.76 h -34.056 v 15.84 h 6.48 z m -6.48,39.6 V 0 h 34.704 v -5.76 z m 6.48,-17.64 h 23.976 v -5.4 h -30.456 v 16.56 h 6.48 z" stroke-width="0" stroke-linejoin="miter" stroke-miterlimit="2" fill="#ffffff" stroke="#ffffff" transform="translate(0 314.38) translate(514.074925 37.58) scale(1.25) translate(-515.51844 51.12)"></path>
        <path id="path709777" style="font-style:normal;font-weight:500;font-size:72px;line-height:1;font-family:'Raleway Medium Alt1';font-variant-ligatures:none;text-align:center;text-anchor:middle" d="m 596.21581,-22.752 c -0.216,1.512 -0.504,3.024 -1.008,4.464 -0.792,2.448 -1.944,4.608 -3.456,6.48 -1.512,1.872 -3.384,3.456 -5.472,4.608 -2.232,1.152 -4.68,1.728 -7.344,1.728 -2.664,0 -5.04,-0.504 -7.2,-1.656 -2.16,-1.08 -4.032,-2.592 -5.544,-4.464 -1.584,-1.872 -2.736,-3.96 -3.6,-6.408 -0.504,-1.512 -0.864,-3.096 -1.08,-4.752 h -6.552 c 0.216,2.304 0.72,4.608 1.584,6.768 1.08,3.168 2.736,5.904 4.896,8.352 2.088,2.448 4.608,4.392 7.56,5.832 2.952,1.44 6.264,2.16 9.864,2.16 3.456,0 6.624,-0.648 9.576,-2.088 2.952,-1.44 5.472,-3.312 7.632,-5.688 2.16,-2.376 3.816,-5.112 5.04,-8.28 0.864,-2.232 1.44,-4.608 1.728,-7.056 z m -33.624,-10.152 c 0.792,-2.376 1.944,-4.464 3.456,-6.408 1.512,-1.872 3.384,-3.384 5.544,-4.536 2.16,-1.152 4.608,-1.728 7.344,-1.728 2.52,0 4.896,0.576 7.056,1.656 2.16,1.152 3.96,2.592 5.544,4.464 1.584,1.872 2.736,3.96 3.6,6.408 0.432,1.296 0.792,2.664 1.008,3.96 h 6.552 c -0.288,-1.944 -0.792,-3.96 -1.44,-5.832 -1.152,-3.096 -2.808,-5.832 -4.896,-8.352 -2.16,-2.448 -4.68,-4.392 -7.56,-5.904 -2.952,-1.512 -6.264,-2.304 -9.792,-2.304 -3.528,0 -6.696,0.72 -9.648,2.16 -2.952,1.44 -5.472,3.312 -7.632,5.688 -2.16,2.448 -3.888,5.184 -5.112,8.28 -0.792,2.088 -1.368,4.176 -1.584,6.264 h 6.552 c 0.216,-1.224 0.576,-2.52 1.008,-3.816 z" stroke-width="0" stroke-linejoin="miter" stroke-miterlimit="2" fill="#ffffff" stroke="#ffffff" transform="translate(0 314.38) translate(563.3766374999999 37.13) scale(1.25) translate(-554.95981 51.48)"></path>
        <path id="path709779" style="font-style:normal;font-weight:500;font-size:72px;line-height:1;font-family:'Raleway Medium Alt1';font-variant-ligatures:none;text-align:center;text-anchor:middle" d="m 647.62719,-40.68 c -0.792,-1.944 -1.872,-3.672 -3.24,-5.256 -1.368,-1.584 -3.024,-2.808 -4.896,-3.744 -1.872,-0.936 -3.96,-1.44 -6.192,-1.44 h -21.312 v 20.448 h 6.48 V -45.36 h 14.472 c 1.224,0 2.376,0.288 3.528,0.792 1.08,0.576 2.088,1.296 2.952,2.232 0.864,1.008 1.512,2.088 2.016,3.384 0.504,1.296 0.792,2.736 0.792,4.176 0,1.44 -0.216,2.808 -0.648,4.104 -0.504,1.368 -1.08,2.448 -1.8,3.456 -0.792,1.008 -1.728,1.728 -2.808,2.304 -1.08,0.576 -2.304,0.792 -3.6,0.792 h -21.384 V 0 h 6.48 v -18.36 h 15.264 c 2.232,0 4.248,-0.432 6.12,-1.368 1.872,-0.864 3.456,-2.088 4.752,-3.672 1.296,-1.512 2.304,-3.24 3.096,-5.256 0.72,-1.944 1.08,-3.96 1.08,-6.12 0,-2.016 -0.432,-3.96 -1.152,-5.904 z" stroke-width="0" stroke-linejoin="miter" stroke-miterlimit="2" fill="#ffffff" stroke="#ffffff" transform="translate(0 314.38) translate(634.6608625000001 37.58) scale(1.25) translate(-611.98719 51.12)"></path>
        <path id="path709781" style="font-style:normal;font-weight:500;font-size:72px;line-height:1;font-family:'Raleway Medium Alt1';font-variant-ligatures:none;text-align:center;text-anchor:middle" d="m 686.87056,-40.392 3.024,-5.256 c -2.16,-1.728 -4.68,-3.168 -7.416,-4.248 -2.808,-1.008 -5.904,-1.584 -9.36,-1.584 -2.664,0 -5.112,0.36 -7.344,1.008 -2.304,0.648 -4.248,1.584 -5.832,2.88 -1.656,1.296 -2.952,2.88 -3.816,4.752 -0.936,1.872 -1.368,4.032 -1.368,6.48 0,2.016 0.288,3.744 1.008,5.184 0.648,1.44 1.656,2.664 2.952,3.672 1.296,1.008 2.952,1.872 4.968,2.592 1.944,0.72 4.248,1.44 6.84,2.016 2.304,0.576 4.392,1.152 6.264,1.728 1.872,0.576 3.384,1.152 4.68,1.872 1.224,0.72 2.16,1.584 2.808,2.592 0.648,1.008 1.008,2.16 1.008,3.6 0,2.592 -1.008,4.536 -3.024,5.832 -2.016,1.296 -4.896,1.944 -8.496,1.944 -2.016,0 -3.888,-0.144 -5.688,-0.576 -1.8,-0.432 -3.456,-0.936 -5.04,-1.584 -1.584,-0.648 -2.952,-1.368 -4.176,-2.232 -1.224,-0.792 -2.232,-1.584 -2.952,-2.448 l -3.096,5.472 c 2.88,2.376 6.048,4.176 9.576,5.4 3.528,1.224 7.272,1.8 11.232,1.8 2.592,0 5.04,-0.216 7.344,-0.792 2.232,-0.576 4.176,-1.44 5.832,-2.592 1.656,-1.152 2.952,-2.664 3.96,-4.464 0.936,-1.8 1.44,-3.96 1.44,-6.408 0,-2.304 -0.432,-4.248 -1.224,-5.832 -0.792,-1.584 -1.944,-2.88 -3.456,-4.032 -1.512,-1.08 -3.312,-2.016 -5.472,-2.736 -2.16,-0.72 -4.536,-1.44 -7.128,-2.016 -2.304,-0.504 -4.32,-1.008 -5.976,-1.512 -1.728,-0.432 -3.096,-1.008 -4.248,-1.656 -1.152,-0.648 -1.944,-1.44 -2.448,-2.376 -0.576,-0.864 -0.792,-2.016 -0.792,-3.456 0,-2.592 0.864,-4.608 2.736,-6.12 1.872,-1.44 4.752,-2.232 8.784,-2.232 1.512,0 2.952,0.216 4.392,0.504 1.44,0.288 2.736,0.72 3.96,1.224 1.152,0.504 2.232,1.08 3.24,1.656 0.936,0.648 1.728,1.296 2.304,1.944 z" stroke-width="0" stroke-linejoin="miter" stroke-miterlimit="2" fill="#ffffff" stroke="#ffffff" transform="translate(0 314.38) translate(685.6950750000001 37.13) scale(1.25) translate(-652.81456 51.48)"></path>
      </g>
      <image xlink:href="" id="icon" x="0" y="0" style="display: none;"></image>
    </g>
  </g>
  </svg>